<svg width="91" height="90" viewBox="0 0 91 90" fill="none" xmlns="http://www.w3.org/2000/svg">
<circle cx="45.6927" cy="45" r="45" fill="#565C24"/>
<path d="M38.7169 56.9277C38.7169 57.1035 38.5129 57.2441 38.2556 57.2441C37.9629 57.2705 37.7589 57.1299 37.7589 56.9277C37.7589 56.752 37.9629 56.6113 38.2202 56.6113C38.4863 56.585 38.7169 56.7256 38.7169 56.9277ZM35.9581 56.5322C35.896 56.708 36.0734 56.9102 36.3395 56.9629C36.5702 57.0508 36.8363 56.9629 36.8895 56.7871C36.9427 56.6113 36.7742 56.4092 36.5081 56.3301C36.2774 56.2686 36.0202 56.3564 35.9581 56.5322ZM39.879 56.3828C39.6218 56.4443 39.4444 56.6113 39.471 56.8135C39.4976 56.9893 39.7282 57.1035 39.9944 57.042C40.2516 56.9805 40.429 56.8135 40.4024 56.6377C40.3758 56.4707 40.1363 56.3564 39.879 56.3828ZM45.7161 22.7031C33.4121 22.7031 24 31.958 24 44.1484C24 53.8955 30.1919 62.2363 39.0363 65.1719C40.1718 65.374 40.571 64.6797 40.571 64.1084C40.571 63.5635 40.5444 60.5576 40.5444 58.7119C40.5444 58.7119 34.3347 60.0303 33.0306 56.0928C33.0306 56.0928 32.0194 53.5352 30.5645 52.876C30.5645 52.876 28.5331 51.4961 30.7065 51.5225C30.7065 51.5225 32.9153 51.6982 34.1306 53.79C36.0734 57.1826 39.329 56.207 40.5976 55.627C40.8016 54.2207 41.3782 53.2451 42.0169 52.665C37.0581 52.1201 32.0548 51.4082 32.0548 42.9531C32.0548 40.5361 32.729 39.3232 34.1484 37.7764C33.9177 37.2051 33.1637 34.8496 34.379 31.8086C36.2331 31.2373 40.5 34.1816 40.5 34.1816C42.2742 33.6895 44.1815 33.4346 46.071 33.4346C47.9605 33.4346 49.8677 33.6895 51.6419 34.1816C51.6419 34.1816 55.9089 31.2285 57.7629 31.8086C58.9782 34.8584 58.2242 37.2051 57.9935 37.7764C59.4129 39.332 60.2823 40.5449 60.2823 42.9531C60.2823 51.4346 55.0573 52.1113 50.0984 52.665C50.9145 53.3594 51.6065 54.6777 51.6065 56.7432C51.6065 59.7051 51.5798 63.3701 51.5798 64.0908C51.5798 64.6621 51.9879 65.3564 53.1145 65.1543C61.9855 62.2363 68 53.8955 68 44.1484C68 31.958 58.0202 22.7031 45.7161 22.7031ZM32.6226 53.0166C32.5073 53.1045 32.5339 53.3066 32.6847 53.4736C32.8266 53.6143 33.0306 53.6758 33.146 53.5615C33.2613 53.4736 33.2347 53.2715 33.0839 53.1045C32.9419 52.9639 32.7379 52.9023 32.6226 53.0166ZM31.6645 52.3047C31.6024 52.4189 31.6911 52.5596 31.8685 52.6475C32.0105 52.7354 32.1879 52.709 32.25 52.5859C32.3121 52.4717 32.2234 52.3311 32.046 52.2432C31.8685 52.1904 31.7266 52.2168 31.6645 52.3047ZM34.5387 55.4336C34.3968 55.5479 34.45 55.8115 34.654 55.9785C34.8581 56.1807 35.1153 56.207 35.2306 56.0664C35.346 55.9521 35.2927 55.6885 35.1153 55.5215C34.9202 55.3193 34.654 55.293 34.5387 55.4336ZM33.5274 54.1416C33.3855 54.2295 33.3855 54.458 33.5274 54.6602C33.6694 54.8623 33.9089 54.9502 34.0242 54.8623C34.1661 54.748 34.1661 54.5195 34.0242 54.3174C33.9 54.1152 33.6694 54.0273 33.5274 54.1416Z" fill="#F5F5F5"/>
</svg>
