<svg width="90" height="90" viewBox="0 0 90 90" fill="none" xmlns="http://www.w3.org/2000/svg">
<circle cx="45" cy="45" r="45" fill="#565C24"/>
<path d="M27.2188 27.625C24.8896 27.625 23 29.5146 23 31.8438C23 33.1709 23.624 34.4189 24.6875 35.2187L43.8125 49.5625C44.8145 50.3096 46.1855 50.3096 47.1875 49.5625L66.3125 35.2187C67.376 34.4189 68 33.1709 68 31.8438C68 29.5146 66.1104 27.625 63.7812 27.625H27.2188ZM23 37.4688V55.75C23 58.8525 25.5225 61.375 28.625 61.375H62.375C65.4775 61.375 68 58.8525 68 55.75V37.4688L48.875 51.8125C46.8711 53.3154 44.1289 53.3154 42.125 51.8125L23 37.4688Z" fill="#F5F5F5"/>
</svg>
