<svg width="91" height="90" viewBox="0 0 91 90" fill="none" xmlns="http://www.w3.org/2000/svg">
<circle cx="45.7649" cy="45" r="45" fill="#565C24"/>
<g clip-path="url(#clip0_50_60)">
<path d="M46.5092 34.3923C40.6886 34.3923 35.9938 38.9011 35.9938 44.491C35.9938 50.0808 40.6886 54.5896 46.5092 54.5896C52.3297 54.5896 57.0246 50.0808 57.0246 44.491C57.0246 38.9011 52.3297 34.3923 46.5092 34.3923ZM46.5092 51.0564C42.7478 51.0564 39.6728 48.1121 39.6728 44.491C39.6728 40.8699 42.7386 37.9255 46.5092 37.9255C50.2797 37.9255 53.3456 40.8699 53.3456 44.491C53.3456 48.1121 50.2706 51.0564 46.5092 51.0564ZM59.9074 33.9792C59.9074 35.2888 58.8092 36.3347 57.4547 36.3347C56.0911 36.3347 55.002 35.28 55.002 33.9792C55.002 32.6785 56.1003 31.6238 57.4547 31.6238C58.8092 31.6238 59.9074 32.6785 59.9074 33.9792ZM66.8719 36.3699C66.7163 33.2146 65.9659 30.4197 63.559 28.1169C61.1612 25.8142 58.2509 25.0935 54.9654 24.9353C51.5793 24.7507 41.4299 24.7507 38.0438 24.9353C34.7674 25.0847 31.8572 25.8054 29.4503 28.1082C27.0433 30.4109 26.302 33.2058 26.1373 36.3611C25.9451 39.613 25.9451 49.3601 26.1373 52.6121C26.2929 55.7673 27.0433 58.5623 29.4503 60.865C31.8572 63.1677 34.7583 63.8884 38.0438 64.0466C41.4299 64.2312 51.5793 64.2312 54.9654 64.0466C58.2509 63.8972 61.1612 63.1765 63.559 60.865C65.9567 58.5623 66.7072 55.7673 66.8719 52.6121C67.0641 49.3601 67.0641 39.6218 66.8719 36.3699ZM62.4973 56.1013C61.7835 57.824 60.4016 59.1511 58.5987 59.8455C55.8989 60.8738 49.4927 60.6365 46.5092 60.6365C43.5257 60.6365 37.1103 60.865 34.4197 59.8455C32.6259 59.1599 31.244 57.8328 30.521 56.1013C29.4503 53.5085 29.6973 47.3562 29.6973 44.491C29.6973 41.6257 29.4594 35.4646 30.521 32.8806C31.2348 31.158 32.6168 29.8308 34.4197 29.1365C37.1194 28.1082 43.5257 28.3455 46.5092 28.3455C49.4927 28.3455 55.9081 28.1169 58.5987 29.1365C60.3924 29.822 61.7744 31.1492 62.4973 32.8806C63.5681 35.4734 63.321 41.6257 63.321 44.491C63.321 47.3562 63.5681 53.5173 62.4973 56.1013Z" fill="#F5F5F5"/>
</g>
<defs>
<clipPath id="clip0_50_60">
<rect width="41" height="45" fill="white" transform="translate(26 22)"/>
</clipPath>
</defs>
</svg>
