<svg width="90" height="90" viewBox="0 0 90 90" fill="none" xmlns="http://www.w3.org/2000/svg">
<circle cx="45" cy="45" r="45" fill="#565C24"/>
<path d="M63.0714 24.8125H27.9194C26.3087 24.8125 25 26.0869 25 27.6514V61.3486C25 62.9131 26.3087 64.1875 27.9194 64.1875H63.0714C64.6821 64.1875 66 62.9131 66 61.3486V27.6514C66 26.0869 64.6821 24.8125 63.0714 24.8125ZM37.3915 58.5625H31.3147V39.7715H37.4007V58.5625H37.3915ZM34.3531 37.2051C32.4038 37.2051 30.8297 35.6846 30.8297 33.8213C30.8297 31.958 32.4038 30.4375 34.3531 30.4375C36.2933 30.4375 37.8766 31.958 37.8766 33.8213C37.8766 35.6934 36.3025 37.2051 34.3531 37.2051ZM60.1703 58.5625H54.0935V49.4219C54.0935 47.2422 54.0478 44.4385 50.9362 44.4385C47.7696 44.4385 47.2846 46.8115 47.2846 49.2637V58.5625H41.2078V39.7715H47.0375V42.3379H47.1199C47.9344 40.8613 49.9203 39.3057 52.8763 39.3057C59.0263 39.3057 60.1703 43.1992 60.1703 48.2617V58.5625Z" fill="#F5F5F5"/>
</svg>
