<svg width="71" height="71" viewBox="0 0 71 71" fill="none" xmlns="http://www.w3.org/2000/svg">
<circle cx="35.5" cy="35.5" r="35.5" fill="#D9DEAB"/>
<g clip-path="url(#clip0_89_33)">
<path d="M14.2 22.3354C14.2 20.8354 15.585 19.6236 17.2992 19.6236H54.4897C56.2039 19.6236 57.5889 20.8354 57.5889 22.3354C57.5889 23.8354 56.2039 25.0472 54.4897 25.0472H17.2992C15.585 25.0472 14.2 23.8354 14.2 22.3354ZM14.2 35.8944C14.2 34.3945 15.585 33.1826 17.2992 33.1826H54.4897C56.2039 33.1826 57.5889 34.3945 57.5889 35.8944C57.5889 37.3944 56.2039 38.6063 54.4897 38.6063H17.2992C15.585 38.6063 14.2 37.3944 14.2 35.8944ZM57.5889 49.4535C57.5889 50.9534 56.2039 52.1653 54.4897 52.1653H17.2992C15.585 52.1653 14.2 50.9534 14.2 49.4535C14.2 47.9535 15.585 46.7417 17.2992 46.7417H54.4897C56.2039 46.7417 57.5889 47.9535 57.5889 49.4535Z" fill="#565C24"/>
</g>
<defs>
<clipPath id="clip0_89_33">
<rect width="43.3889" height="43.3889" fill="white" transform="translate(14.2 14.2)"/>
</clipPath>
</defs>
</svg>
