<svg width="91" height="90" viewBox="0 0 91 90" fill="none" xmlns="http://www.w3.org/2000/svg">
<circle cx="45.9091" cy="45" r="45" fill="#565C24"/>
<g clip-path="url(#clip0_50_64)">
<path d="M54.9375 44.5C54.9375 46.4512 54.832 48.332 54.6475 50.125H38.3525C38.1592 48.332 38.0625 46.4512 38.0625 44.5C38.0625 42.5488 38.168 40.668 38.3525 38.875H54.6475C54.8408 40.668 54.9375 42.5488 54.9375 44.5ZM57.4688 38.875H68.2881C68.7539 40.6768 69 42.5576 69 44.5C69 46.4424 68.7539 48.3232 68.2881 50.125H57.4688C57.6533 48.3145 57.75 46.4336 57.75 44.5C57.75 42.5664 57.6533 40.6855 57.4688 38.875ZM67.3652 36.0625H57.1084C56.2295 30.4463 54.4893 25.7441 52.248 22.7383C59.1299 24.5576 64.7285 29.5498 67.3564 36.0625H67.3652ZM54.2607 36.0625H38.7393C39.2754 32.8633 40.1016 30.0332 41.1123 27.7393C42.0352 25.665 43.0635 24.1621 44.0566 23.2129C45.041 22.2812 45.8584 22 46.5 22C47.1416 22 47.959 22.2812 48.9434 23.2129C49.9365 24.1621 50.9648 25.665 51.8877 27.7393C52.9072 30.0244 53.7246 32.8545 54.2607 36.0625ZM35.8916 36.0625H25.6348C28.2715 29.5498 33.8613 24.5576 40.752 22.7383C38.5107 25.7441 36.7705 30.4463 35.8916 36.0625ZM24.7119 38.875H35.5312C35.3467 40.6855 35.25 42.5664 35.25 44.5C35.25 46.4336 35.3467 48.3145 35.5312 50.125H24.7119C24.2461 48.3232 24 46.4424 24 44.5C24 42.5576 24.2461 40.6768 24.7119 38.875ZM41.1123 61.252C40.0928 58.9668 39.2754 56.1367 38.7393 52.9375H54.2607C53.7246 56.1367 52.8984 58.9668 51.8877 61.252C50.9648 63.3262 49.9365 64.8291 48.9434 65.7783C47.959 66.7188 47.1416 67 46.5 67C45.8584 67 45.041 66.7188 44.0566 65.7871C43.0635 64.8379 42.0352 63.335 41.1123 61.2607V61.252ZM35.8916 52.9375C36.7705 58.5537 38.5107 63.2559 40.752 66.2617C33.8613 64.4424 28.2715 59.4502 25.6348 52.9375H35.8916ZM67.3652 52.9375C64.7285 59.4502 59.1387 64.4424 52.2568 66.2617C54.498 63.2559 56.2295 58.5537 57.1172 52.9375H67.3652Z" fill="#F5F5F5"/>
</g>
<defs>
<clipPath id="clip0_50_64">
<rect width="45" height="45" fill="white" transform="translate(24 22)"/>
</clipPath>
</defs>
</svg>
